<svg height="512" viewBox="0 0 44 56" width="512" xmlns="http://www.w3.org/2000/svg"><g id="Page-1" fill="none" fill-rule="evenodd"><g id="009---Contact-Form" fill="rgb(0,0,0)" fill-rule="nonzero"><path id="Shape" d="m0 54c0 1.1045695.8954305 2 2 2h40c1.1045695 0 2-.8954305 2-2v-46h-44zm23 0h-8c-2.209139 0-4-1.790861-4-4s1.790861-4 4-4h8c2.209139 0 4 1.790861 4 4s-1.790861 4-4 4zm-12-37.7c-.0000886-.3950646.1168278-.7813063.336-1.11l1.709-2.563c.1664484-.2519398.3884765-.4623362.649-.615 2.5515294-1.3686791 5.4109783-2.06133635 8.306-2.012 2.8952847-.04841521 5.7547492.6452786 8.306 2.015.2605235.1526638.4825516.3630602.649.615l1.709 2.563c.2186059.3278434.3354969.7129574.336 1.107v1.7c0 1.1045695-.8954305 2-2 2h-3c-1.1045695 0-2-.8954305-2-2v-1.329c-2.5954051-.896657-5.4165949-.896657-8.012 0l.012 1.329c0 1.1045695-.8954305 2-2 2h-3c-1.1045695 0-2-.8954305-2-2zm-8 7.7c0-1.1045695.8954305-2 2-2h34c1.1045695 0 2 .8954305 2 2v6c0 1.1045695-.8954305 2-2 2h-34c-1.1045695 0-2-.8954305-2-2zm0 12c0-1.1045695.8954305-2 2-2h34c1.1045695 0 2 .8954305 2 2v6c0 1.1045695-.8954305 2-2 2h-34c-1.1045695 0-2-.8954305-2-2zm0 13c0-1.1045695.8954305-2 2-2h2c1.1045695 0 2 .8954305 2 2v2c0 1.1045695-.8954305 2-2 2h-2c-1.1045695 0-2-.8954305-2-2z"/><path id="Shape" d="m38.5 36h-33c-.27614237 0-.5.2238576-.5.5v5c0 .2761424.22385763.5.5.5h33c.2761424 0 .5-.2238576.5-.5v-5c0-.2761424-.2238576-.5-.5-.5zm-2.5 4h-28c-.55228475 0-1-.4477153-1-1s.44771525-1 1-1h28c.5522847 0 1 .4477153 1 1s-.4477153 1-1 1z"/><rect id="Rectangle-path" height="2" rx=".5" width="2" x="5" y="49"/><path id="Shape" d="m23 48h-8c-1.1045695 0-2 .8954305-2 2s.8954305 2 2 2h8c1.1045695 0 2-.8954305 2-2s-.8954305-2-2-2z"/><path id="Shape" d="m16 16.671c-.0004873-.8385072.5221289-1.5882958 1.309-1.878 3.0372725-1.0573659 6.3427275-1.0573659 9.38 0 .7876592.2890419 1.3111793 1.0389815 1.311 1.878v1.329h3v-1.7l-1.709-2.564c-2.2421994-1.1918191-4.7522935-1.7894769-7.291-1.736-2.5424223-.0523838-5.0558042.5480735-7.3 1.744l-1.7 2.556v1.7h3z"/><path id="Shape" d="m38.5 24h-33c-.27614237 0-.5.2238576-.5.5v5c0 .2761424.22385763.5.5.5h33c.2761424 0 .5-.2238576.5-.5v-5c0-.2761424-.2238576-.5-.5-.5zm-2.5 4h-28c-.55228475 0-1-.4477153-1-1s.44771525-1 1-1h28c.5522847 0 1 .4477153 1 1s-.4477153 1-1 1z"/><path id="Shape" d="m42 0h-40c-1.1045695 0-2 .8954305-2 2v4h44v-4c0-1.1045695-.8954305-2-2-2zm-39 4c-.55228475 0-1-.44771525-1-1s.44771525-1 1-1 1 .44771525 1 1-.44771525 1-1 1zm4 0c-.55228475 0-1-.44771525-1-1s.44771525-1 1-1 1 .44771525 1 1-.44771525 1-1 1zm4 0c-.5522847 0-1-.44771525-1-1s.4477153-1 1-1 1 .44771525 1 1-.4477153 1-1 1zm30 0h-10c-.5522847 0-1-.44771525-1-1s.4477153-1 1-1h10c.5522847 0 1 .44771525 1 1s-.4477153 1-1 1z"/></g></g></svg>